<svg version="1.1" id="Layer_1" xmlns="http://www.w3.org/2000/svg" xmlns:xlink="http://www.w3.org/1999/xlink" x="0px" y="0px"
	 width="100%" viewBox="0 0 272 176" enable-background="new 0 0 272 176" xml:space="preserve">
<path fill="#000000" opacity="1.000000" stroke="none" 
	d="
M135.127975,89.095505 
	C139.176407,92.619560 143.746490,90.592049 147.350037,89.076851 
	C153.573242,86.460159 160.586899,84.668945 164.791351,78.556892 
	C167.689301,74.344139 170.674286,70.182884 173.119537,64.243057 
	C172.676941,74.482201 171.504715,83.275787 169.758514,92.093369 
	C162.170609,94.870407 155.443344,99.938377 147.111282,101.489815 
	C135.568787,103.639023 124.926460,101.386070 115.001038,95.616318 
	C111.171989,93.390442 107.741852,91.492920 103.039917,94.377197 
	C110.327682,88.009514 110.524612,80.466110 107.551453,71.979713 
	C113.815552,82.286148 122.379936,88.222054 134.579865,89.013702 
	C134.977417,88.995125 135.127975,89.095505 135.127975,89.095505 
z"/>
<path fill="#000000" opacity="1.000000" stroke="none" 
	d="
M195.007828,123.745377 
	C196.191101,126.693848 197.442520,129.149933 199.300323,131.332596 
	C203.118317,135.818222 203.266220,152.079102 199.595963,156.575073 
	C198.572693,157.828522 197.456146,159.206024 195.302139,158.531067 
	C195.238953,158.109268 194.941162,157.474854 195.136078,157.225311 
	C200.423080,150.456635 198.588242,143.646790 195.675934,136.582718 
	C193.085312,130.298965 191.091034,123.771034 188.760956,117.377327 
	C187.841904,114.855415 188.717560,113.262505 191.261810,111.918106 
	C194.178970,115.279747 192.048340,120.204353 195.007828,123.745377 
z"/>
<path fill="#000000" opacity="1.000000" stroke="none" 
	d="
M85.835899,114.921524 
	C88.803711,112.122322 89.658585,107.971870 94.294685,105.279465 
	C89.769470,117.387299 82.681938,127.095169 80.290932,139.335068 
	C78.749924,134.764175 81.497040,123.245705 85.835899,114.921524 
z"/>
<path fill="#000000" opacity="1.000000" stroke="none" 
	d="
M171.503403,103.759094 
	C170.143616,103.726494 169.086273,104.889366 167.656372,103.579735 
	C168.715256,101.978775 168.969391,100.086296 168.090942,97.962715 
	C175.700150,101.464005 179.875381,107.673584 182.291519,115.405235 
	C179.832245,112.419037 177.332108,109.465103 174.934891,106.429886 
	C174.043472,105.301216 173.702881,103.620857 171.503403,103.759094 
z"/>
<path fill="#000000" opacity="1.000000" stroke="none" 
	d="
M134.900375,88.947701 
	C133.908173,86.809921 131.313324,87.499443 129.364700,85.745369 
	C135.723495,84.650925 141.595001,85.340263 147.988678,83.442963 
	C146.091232,86.319542 146.091232,86.319542 135.475616,88.941010 
	C135.127975,89.095505 134.977417,88.995125 134.900375,88.947701 
z"/>
</svg>